<?xml version="1.0" standalone="no"?>
<!DOCTYPE svg PUBLIC "-//W3C//DTD SVG 20010904//EN"
 "http://www.w3.org/TR/2001/REC-SVG-20010904/DTD/svg10.dtd">
<svg version="1.0" xmlns="http://www.w3.org/2000/svg"
 width="1450.000000pt" height="150" viewBox="0 0 2501.000000 585.000000"
 preserveAspectRatio="xMidYMid meet">

<g transform="translate(0.000000,585.000000) scale(0.100000,-0.100000)"
fill="#000000" stroke="none">
<path d="M12013 4919 c-24 -10 -43 -22 -43 -27 0 -4 15 -22 33 -39 71 -68 212
-70 279 -3 15 16 28 34 28 40 0 6 -18 19 -41 29 l-41 19 -23 -24 c-33 -33 -93
-33 -126 0 l-24 23 -42 -18z"/>
<path d="M14173 4919 c-24 -10 -43 -22 -43 -27 0 -4 15 -22 33 -39 71 -68 212
-70 279 -3 15 16 28 34 28 40 0 6 -18 19 -41 29 l-41 19 -23 -24 c-33 -33 -93
-33 -126 0 l-24 23 -42 -18z"/>
<path d="M2757 4778 c-75 -90 -1185 -1475 -1198 -1495 -10 -17 4 -39 124 -189
129 -162 554 -692 581 -724 7 -9 97 -121 200 -250 288 -360 289 -362 316 -392
l25 -29 435 542 c239 299 519 648 623 777 103 128 187 241 187 250 0 10 -51
80 -112 157 -105 130 -684 848 -815 1011 -32 39 -116 144 -186 233 -71 88
-130 161 -132 161 -2 0 -23 -24 -48 -52z m9 -529 c59 26 101 6 136 -67 30 -63
32 -218 4 -272 -40 -77 -77 -98 -131 -76 -18 8 -39 24 -45 36 -17 32 -3 37 21
7 24 -31 59 -35 82 -9 17 19 36 89 37 135 0 26 -2 27 -50 27 -38 0 -50 4 -50
15 0 11 12 15 51 15 l51 0 -7 43 c-16 104 -35 137 -75 137 -17 0 -60 -51 -60
-71 0 -10 -4 -21 -10 -24 -6 -4 -10 17 -10 56 0 54 2 60 15 49 12 -10 21 -10
41 -1z m-287 -96 c41 -174 42 -178 52 -162 13 20 11 4 -10 -81 -17 -67 -20
-72 -28 -50 -10 26 -56 214 -70 285 -6 35 -8 28 -14 -55 -13 -180 -11 -218 11
-240 l20 -20 -42 0 c-34 1 -39 3 -25 11 15 9 17 30 17 199 0 169 -2 190 -17
199 -14 8 -7 10 33 11 l50 0 23 -97z m199 86 c-16 -9 -18 -30 -18 -204 0 -176
2 -194 18 -198 9 -3 -12 -5 -47 -6 -56 -1 -62 1 -51 15 10 11 14 62 15 179 1
90 -1 162 -5 160 -4 -2 -15 -44 -25 -92 -11 -48 -21 -81 -23 -72 -3 15 14 100
39 192 10 37 10 37 62 37 40 -1 48 -3 35 -11z m389 -2 c-15 -11 -17 -29 -15
-147 l3 -135 43 115 c23 63 42 123 42 132 0 9 -10 24 -22 32 -21 15 -19 16 47
15 52 0 64 -3 48 -9 -23 -9 -23 -12 -23 -200 0 -188 0 -191 23 -200 17 -7 7
-9 -41 -9 -58 -1 -62 0 -48 15 13 12 16 41 16 147 0 77 -4 127 -9 122 -10 -11
-75 -183 -86 -226 -5 -21 -2 -30 16 -43 23 -15 21 -16 -46 -15 -39 0 -63 3
-55 6 8 3 18 11 22 17 4 6 8 93 8 194 0 180 0 183 -22 192 -17 6 -5 9 46 9 59
1 67 -1 53 -12z m585 -524 c2 -5 2 -212 0 -460 l-2 -453 -323 -2 -322 -3 -3
-102 -3 -103 -169 -2 c-94 -1 -178 -2 -187 -2 -16 -1 -18 11 -19 104 l-1 105
-269 5 c-251 5 -272 6 -309 27 -42 22 -78 58 -111 108 -14 23 -19 48 -19 105
0 88 23 140 80 188 l36 29 -49 51 c-52 53 -72 104 -72 179 0 49 39 129 81 170
69 65 26 62 881 63 427 0 778 -3 780 -7z m-806 -1250 c-11 -54 -26 -168 -26
-206 0 -35 1 -37 21 -27 28 15 33 7 21 -29 -18 -52 -35 -230 -24 -244 8 -9 5
-25 -10 -57 l-20 -45 -19 44 c-17 39 -18 46 -4 61 11 12 14 38 14 93 -1 78 -9
98 -33 78 -19 -16 -26 -3 -27 48 0 25 -6 92 -13 149 -6 57 -9 107 -6 112 6 10
99 49 118 49 10 1 12 -7 8 -26z"/>
<path d="M2085 3651 c-76 -35 -115 -95 -115 -176 0 -79 37 -137 113 -176 51
-27 49 -52 -8 -82 -132 -68 -145 -254 -23 -335 l41 -27 264 -3 263 -3 2 178 3
178 183 3 182 2 0 -180 0 -180 305 0 305 0 -2 408 -3 407 -735 2 c-697 2 -737
2 -775 -16z m1387 -127 c9 -9 27 -39 40 -67 21 -47 23 -66 23 -197 0 -130 -2
-150 -23 -195 -38 -83 -74 -110 -124 -93 -27 10 -82 81 -76 100 2 5 12 -6 23
-26 36 -66 97 -62 115 7 6 23 16 56 21 73 5 17 9 51 9 77 l0 47 -56 0 c-46 0
-55 3 -52 17 2 12 15 16 53 17 l50 1 -1 67 c-3 109 -31 168 -79 168 -30 0 -54
-34 -71 -98 l-13 -47 0 88 c-1 52 3 87 9 87 6 0 10 -7 10 -15 0 -19 3 -19 41
4 34 21 66 16 101 -15z m-1019 15 c37 20 69 10 95 -29 21 -30 23 -44 20 -107
-3 -57 -8 -76 -26 -96 -26 -27 -28 -43 -7 -51 41 -15 60 -161 31 -231 -15 -34
-59 -65 -95 -65 -23 0 -71 58 -71 86 0 14 5 10 20 -14 15 -24 27 -32 43 -30
66 9 76 211 11 240 -29 14 -31 34 -4 41 27 7 40 46 40 122 0 78 -13 115 -39
115 -25 0 -41 -28 -51 -89 -7 -41 -8 -36 -9 39 0 55 3 80 9 70 7 -12 13 -12
33 -1z m751 -215 c52 -255 66 -315 78 -331 6 -8 -8 -12 -52 -15 -59 -3 -77 4
-44 16 14 5 16 16 10 67 -3 33 -8 65 -12 70 -7 12 -75 11 -93 0 -9 -6 -16 -32
-19 -70 -4 -57 -3 -61 19 -70 20 -8 14 -10 -31 -10 -41 0 -51 2 -38 10 21 12
27 32 79 280 37 179 47 230 48 268 2 37 15 -13 55 -215z m-885 200 c75 -53 63
-262 -16 -279 -15 -4 -34 -8 -40 -11 -10 -2 -13 -35 -13 -118 0 -99 2 -115 18
-122 11 -5 -4 -10 -48 -14 -36 -4 -67 -5 -69 -3 -3 2 5 10 17 19 22 15 22 19
22 264 0 246 0 249 -22 264 -21 15 -18 16 53 16 53 0 81 -5 98 -16z"/>
<path d="M3125 3339 c-19 -84 -33 -165 -29 -171 3 -4 21 -8 40 -8 40 0 40 1
19 114 -17 89 -22 99 -30 65z"/>
<path d="M2250 3386 c0 -107 2 -126 16 -126 23 0 44 62 44 132 0 69 -16 111
-43 116 -15 3 -17 -9 -17 -122z"/>
<path d="M2687 3153 c-3 -5 38 -7 91 -5 153 4 168 9 35 10 -67 1 -124 -1 -126
-5z"/>
<path d="M2894 2925 c0 -55 1 -76 3 -47 2 29 2 74 0 100 -2 26 -3 2 -3 -53z"/>
<path d="M2787 2877 c-11 -29 -9 -53 4 -40 6 6 9 21 7 34 -3 21 -4 22 -11 6z"/>
<path d="M2753 2803 c9 -2 23 -2 30 0 6 3 -1 5 -18 5 -16 0 -22 -2 -12 -5z"/>
<path d="M2853 2803 c9 -2 23 -2 30 0 6 3 -1 5 -18 5 -16 0 -22 -2 -12 -5z"/>
<path d="M6490 4771 l0 -38 -52 -7 c-163 -21 -241 -98 -241 -236 0 -143 67
-215 222 -242 l71 -12 0 -43 0 -43 60 0 60 0 0 43 0 43 69 10 c137 22 199 74
223 186 9 43 9 68 0 110 -25 109 -88 160 -223 182 l-69 10 0 38 0 38 -60 0
-60 0 0 -39z m0 -286 l0 -145 -33 0 c-76 0 -137 64 -137 145 0 82 59 145 138
145 l32 0 0 -145z m215 131 c47 -20 75 -69 75 -131 0 -86 -41 -133 -124 -142
l-46 -6 0 147 0 146 30 0 c17 0 46 -6 65 -14z"/>
<path d="M5680 4519 c-69 -149 -135 -293 -147 -320 l-22 -49 67 0 67 0 21 53
22 52 124 3 124 3 23 -56 23 -55 65 0 c40 0 63 4 61 10 -10 30 -294 629 -298
629 -3 0 -61 -121 -130 -270z m173 -79 l36 -80 -75 0 -74 0 21 53 c12 28 26
64 31 80 6 15 13 27 17 27 4 0 24 -36 44 -80z"/>
<path d="M8870 4519 c-69 -149 -135 -293 -147 -320 l-22 -49 67 0 67 0 21 53
22 52 124 3 124 3 23 -56 23 -55 65 0 c40 0 63 4 61 10 -10 30 -294 629 -298
629 -3 0 -61 -121 -130 -270z m173 -79 l36 -80 -75 0 -74 0 21 53 c12 28 26
64 31 80 6 15 13 27 17 27 4 0 24 -36 44 -80z"/>
<path d="M12210 4610 c-102 -99 -188 -180 -192 -180 -5 0 -8 77 -8 170 l0 170
-60 0 -60 0 0 -316 0 -316 108 100 c59 55 143 137 187 181 44 45 83 81 87 81
5 0 8 -79 8 -175 l0 -175 60 0 60 0 0 320 c0 176 -1 320 -2 320 -2 -1 -86 -82
-188 -180z"/>
<path d="M14370 4610 c-102 -99 -188 -180 -192 -180 -5 0 -8 77 -8 170 l0 170
-60 0 -60 0 0 -316 0 -316 108 100 c59 55 143 137 187 181 44 45 83 81 87 81
5 0 8 -79 8 -175 l0 -175 60 0 60 0 0 320 c0 176 -1 320 -2 320 -2 -1 -86 -82
-188 -180z"/>
<path d="M15670 4519 c-69 -149 -135 -293 -147 -320 l-22 -49 67 0 67 0 21 53
22 52 124 3 124 3 23 -56 23 -55 65 0 c40 0 63 4 61 10 -10 30 -294 629 -298
629 -3 0 -61 -121 -130 -270z m173 -79 l36 -80 -75 0 -74 0 21 53 c12 28 26
64 31 80 6 15 13 27 17 27 4 0 24 -36 44 -80z"/>
<path d="M13480 4766 c-113 -33 -159 -72 -207 -171 -63 -132 -39 -270 62 -364
71 -65 133 -86 245 -85 139 1 230 53 290 165 85 160 27 350 -132 428 -76 37
-186 49 -258 27z m191 -129 c24 -13 58 -43 74 -66 26 -37 30 -51 30 -111 0
-60 -4 -74 -30 -111 -45 -64 -104 -91 -186 -87 -52 3 -75 9 -106 31 -129 89
-111 290 32 353 49 22 135 17 186 -9z"/>
<path d="M15112 4771 c-47 -12 -122 -42 -122 -48 0 -5 36 -69 46 -82 2 -2 24
6 49 18 78 36 160 23 179 -30 21 -60 -23 -109 -99 -109 l-35 0 0 -50 0 -50 39
0 c60 0 101 -19 116 -53 47 -111 -132 -162 -238 -68 -18 15 -21 14 -43 -14
-48 -58 -48 -62 -7 -89 88 -58 246 -71 332 -27 135 69 132 249 -5 296 l-38 13
31 16 c51 26 73 62 73 119 0 63 -28 111 -81 138 -45 22 -147 33 -197 20z"/>
<path d="M17461 4608 c-101 -95 -187 -174 -192 -176 -5 -2 -9 70 -9 167 l0
171 -60 0 -60 0 0 -316 0 -316 108 100 c59 55 143 137 187 181 44 45 83 81 87
81 5 0 8 -79 8 -175 l0 -175 60 0 60 0 0 315 c0 173 -1 315 -3 315 -2 0 -86
-78 -186 -172z"/>
<path d="M19601 4608 c-101 -95 -187 -174 -192 -176 -5 -2 -9 70 -9 167 l0
171 -60 0 -60 0 0 -316 0 -316 108 100 c59 55 143 137 187 181 44 45 83 81 87
81 5 0 8 -79 8 -175 l0 -175 60 0 60 0 0 315 c0 173 -1 315 -3 315 -2 0 -86
-78 -186 -172z"/>
<path d="M4930 4460 l0 -310 60 0 59 0 3 151 3 151 120 -151 120 -151 78 0
c42 0 77 3 77 6 0 4 -53 70 -117 148 -65 77 -124 149 -132 158 -12 16 -1 32
101 150 63 73 117 139 122 146 5 9 -10 12 -66 12 l-73 0 -115 -142 -115 -141
-3 141 -3 142 -59 0 -60 0 0 -310z"/>
<path d="M7050 4460 l0 -310 170 0 170 0 0 50 0 50 -110 0 -110 0 0 85 0 85
105 0 105 0 0 50 0 50 -105 0 -105 0 0 75 0 75 110 0 110 0 0 50 0 50 -170 0
-170 0 0 -310z"/>
<path d="M7598 4578 c-3 -179 -5 -197 -27 -241 -16 -34 -34 -53 -62 -68 l-39
-19 0 -120 0 -120 55 0 55 0 0 70 0 70 210 0 210 0 0 -70 0 -70 55 0 55 0 0
120 0 120 -40 0 -40 0 0 260 0 260 -214 0 -214 0 -4 -192z m312 -118 l0 -210
-135 0 -134 0 30 48 c35 58 49 131 49 270 l0 102 95 0 95 0 0 -210z"/>
<path d="M8210 4461 l0 -311 60 0 60 0 0 109 0 108 88 5 c110 7 163 31 192 89
43 83 36 177 -17 240 -47 55 -74 63 -235 67 l-148 4 0 -311z m271 180 c23 -23
29 -38 29 -71 0 -33 -6 -48 -29 -71 -26 -26 -36 -29 -90 -29 l-61 0 0 100 0
100 61 0 c54 0 64 -3 90 -29z"/>
<path d="M9670 4461 l0 -311 60 0 60 0 0 109 0 108 88 5 c110 7 163 31 192 89
43 83 36 177 -17 240 -47 55 -74 63 -235 67 l-148 4 0 -311z m271 180 c23 -23
29 -38 29 -71 0 -33 -6 -48 -29 -71 -26 -26 -36 -29 -90 -29 l-61 0 0 100 0
100 61 0 c54 0 64 -3 90 -29z"/>
<path d="M10230 4460 l0 -310 170 0 170 0 0 50 0 50 -110 0 -110 0 0 85 0 85
105 0 105 0 0 50 0 50 -105 0 -105 0 0 75 0 75 110 0 110 0 0 50 0 50 -170 0
-170 0 0 -310z"/>
<path d="M10780 4555 c0 -163 -3 -224 -14 -250 -16 -37 -42 -55 -80 -55 -24 0
-26 -3 -26 -49 0 -57 15 -68 77 -56 128 24 163 104 163 375 l0 150 100 0 100
0 0 -255 0 -255 60 0 60 0 0 305 0 305 -220 0 -220 0 0 -215z"/>
<path d="M11390 4460 l0 -310 170 0 170 0 0 50 0 50 -110 0 -110 0 0 85 0 85
105 0 105 0 0 50 0 50 -105 0 -105 0 0 75 0 75 110 0 110 0 0 50 0 50 -170 0
-170 0 0 -310z"/>
<path d="M12580 4460 l0 -310 60 0 60 0 0 135 0 135 140 0 140 0 0 -135 0
-135 60 0 60 0 0 310 0 310 -60 0 -60 0 0 -125 0 -125 -140 0 -140 0 0 125 0
125 -60 0 -60 0 0 -310z"/>
<path d="M16210 4460 l0 -310 380 0 380 0 0 -70 0 -70 55 0 55 0 0 120 0 120
-40 0 -40 0 0 260 0 260 -65 0 -65 0 0 -260 0 -260 -100 0 -100 0 0 260 0 260
-65 0 -65 0 0 -260 0 -260 -100 0 -100 0 0 260 0 260 -65 0 -65 0 0 -310z"/>
<path d="M17740 4720 l0 -50 70 0 70 0 0 -255 0 -255 60 0 60 0 0 255 0 255
70 0 70 0 0 50 0 50 -200 0 -200 0 0 -50z"/>
<path d="M18250 4459 l0 -311 148 4 c123 3 155 7 194 25 81 37 112 121 83 220
-26 87 -94 122 -237 123 l-68 0 0 125 0 125 -60 0 -60 0 0 -311z m285 -64 c25
-24 32 -65 19 -100 -11 -27 -60 -45 -124 -45 l-60 0 0 85 0 85 70 0 c62 0 74
-3 95 -25z"/>
<path d="M18770 4460 l0 -310 60 0 60 0 0 310 0 310 -60 0 -60 0 0 -310z"/>
<path d="M5030 3389 c-69 -149 -135 -293 -147 -320 l-22 -49 67 0 67 0 21 53
22 52 124 3 124 3 23 -56 23 -55 65 0 c40 0 63 4 61 10 -10 30 -294 629 -298
629 -3 0 -61 -121 -130 -270z m173 -79 l36 -80 -75 0 -74 0 21 53 c12 28 26
64 31 80 6 15 13 27 17 27 4 0 24 -36 44 -80z"/>
<path d="M8250 3389 c-69 -149 -135 -293 -147 -320 l-22 -49 67 0 67 0 21 53
22 52 124 3 124 3 23 -56 23 -55 65 0 c40 0 63 4 61 10 -10 30 -294 629 -298
629 -3 0 -61 -121 -130 -270z m173 -79 l36 -80 -75 0 -74 0 21 53 c12 28 26
64 31 80 6 15 13 27 17 27 4 0 24 -36 44 -80z"/>
<path d="M10530 3389 c-69 -149 -135 -293 -147 -320 l-22 -49 67 0 67 0 21 53
22 52 124 3 124 3 23 -56 23 -55 65 0 c40 0 63 4 61 10 -10 30 -294 629 -298
629 -3 0 -61 -121 -130 -270z m173 -79 l36 -80 -75 0 -74 0 21 53 c12 28 26
64 31 80 6 15 13 27 17 27 4 0 24 -36 44 -80z"/>
<path d="M17022 3644 c-174 -46 -273 -217 -228 -391 45 -179 204 -280 379
-243 l57 11 0 64 0 64 -35 -15 c-39 -16 -112 -18 -149 -4 -43 16 -104 79 -122
125 -26 69 -16 164 22 212 59 74 175 106 248 68 15 -8 30 -15 32 -15 2 0 4 27
4 59 l0 59 -50 11 c-65 14 -92 13 -158 -5z"/>
<path d="M18162 3644 c-174 -46 -273 -217 -228 -391 45 -179 204 -280 379
-243 l57 11 0 64 0 64 -35 -15 c-39 -16 -112 -18 -149 -4 -43 16 -104 79 -122
125 -26 69 -16 164 22 212 59 74 175 106 248 68 15 -8 30 -15 32 -15 2 0 4 27
4 59 l0 59 -50 11 c-65 14 -92 13 -158 -5z"/>
<path d="M6780 3636 c-113 -33 -159 -72 -207 -171 -63 -132 -39 -270 62 -364
71 -65 133 -86 245 -85 139 1 230 53 290 165 85 160 27 350 -132 428 -76 37
-186 49 -258 27z m191 -129 c24 -13 58 -43 74 -66 26 -37 30 -51 30 -111 0
-60 -4 -74 -30 -111 -45 -64 -104 -91 -186 -87 -52 3 -75 9 -106 31 -129 89
-111 290 32 353 49 22 135 17 186 -9z"/>
<path d="M7431 3614 c-5 -22 -41 -164 -79 -317 l-70 -278 61 3 61 3 37 148
c20 82 39 150 41 152 2 2 42 -68 88 -156 45 -88 86 -156 91 -152 4 4 42 74 84
156 42 81 80 147 84 147 4 0 23 -66 42 -147 l35 -148 63 -3 c56 -3 62 -1 57
15 -2 10 -37 144 -76 298 -39 154 -74 288 -78 297 -5 13 -34 -35 -107 -177
-55 -107 -103 -195 -107 -195 -3 0 -52 87 -108 193 -57 105 -104 194 -106 196
-1 1 -7 -14 -13 -35z"/>
<path d="M9531 3478 c-101 -95 -187 -174 -192 -176 -5 -2 -9 70 -9 167 l0 171
-60 0 -60 0 0 -316 0 -316 108 100 c59 55 143 137 187 181 44 45 83 81 87 81
5 0 8 -79 8 -175 l0 -175 60 0 60 0 0 315 c0 173 -1 315 -3 315 -2 0 -86 -78
-186 -172z"/>
<path d="M9972 3641 c-47 -12 -122 -42 -122 -48 0 -5 36 -69 46 -82 2 -2 24 6
49 18 78 36 160 23 179 -30 21 -60 -23 -109 -99 -109 l-35 0 0 -50 0 -50 39 0
c60 0 101 -19 116 -53 47 -111 -132 -162 -238 -68 -18 15 -21 14 -43 -14 -48
-58 -48 -62 -7 -89 88 -58 246 -71 332 -27 135 69 132 249 -5 296 l-38 13 31
16 c51 26 73 62 73 119 0 63 -28 111 -81 138 -45 22 -147 33 -197 20z"/>
<path d="M12061 3478 c-101 -95 -187 -174 -192 -176 -5 -2 -9 70 -9 167 l0
171 -60 0 -60 0 0 -316 0 -316 108 100 c59 55 143 137 187 181 44 45 83 81 87
81 5 0 8 -79 8 -175 l0 -175 60 0 60 0 0 315 c0 173 -1 315 -3 315 -2 0 -86
-78 -186 -172z"/>
<path d="M12681 3478 c-101 -95 -187 -174 -192 -176 -5 -2 -9 70 -9 167 l0
171 -60 0 -60 0 0 -316 0 -316 108 100 c59 55 143 137 187 181 44 45 83 81 87
81 5 0 8 -79 8 -175 l0 -175 60 0 60 0 0 315 c0 173 -1 315 -3 315 -2 0 -86
-78 -186 -172z"/>
<path d="M13335 3639 c-91 -22 -95 -25 -95 -90 0 -33 2 -59 4 -59 3 0 27 12
53 26 41 22 58 25 119 22 59 -3 77 -8 107 -31 36 -27 57 -58 71 -104 l7 -23
-125 0 -126 0 0 -50 0 -50 126 0 125 0 -7 -22 c-14 -47 -35 -78 -70 -105 -30
-22 -49 -28 -104 -31 -65 -4 -82 1 -173 46 -4 2 -7 -25 -5 -59 l3 -64 40 -14
c64 -23 220 -20 275 6 60 28 108 76 139 143 22 47 26 69 26 150 0 78 -4 104
-23 146 -28 63 -82 116 -143 143 -54 24 -167 34 -224 20z"/>
<path d="M16280 3636 c-113 -33 -159 -72 -207 -171 -63 -132 -39 -270 62 -364
71 -65 133 -86 245 -85 139 1 230 53 290 165 85 160 27 350 -132 428 -76 37
-186 49 -258 27z m191 -129 c24 -13 58 -43 74 -66 26 -37 30 -51 30 -111 0
-60 -4 -74 -30 -111 -45 -64 -104 -91 -186 -87 -52 3 -75 9 -106 31 -129 89
-111 290 32 353 49 22 135 17 186 -9z"/>
<path d="M17641 3478 c-101 -95 -187 -174 -192 -176 -5 -2 -9 70 -9 167 l0
171 -60 0 -60 0 0 -316 0 -316 108 100 c59 55 143 137 187 181 44 45 83 81 87
81 5 0 8 -79 8 -175 l0 -175 60 0 60 0 0 315 c0 173 -1 315 -3 315 -2 0 -86
-78 -186 -172z"/>
<path d="M19521 3614 c-5 -22 -41 -164 -79 -317 l-70 -278 61 3 61 3 37 148
c20 82 39 150 41 152 2 2 42 -68 88 -156 45 -88 86 -156 91 -152 4 4 42 74 84
156 42 81 80 147 84 147 4 0 23 -66 42 -147 l35 -148 63 -3 c56 -3 62 -1 57
15 -2 10 -37 144 -76 298 -39 154 -74 288 -78 297 -5 13 -34 -35 -107 -177
-55 -107 -103 -195 -107 -195 -3 0 -52 87 -108 193 -57 105 -104 194 -106 196
-1 1 -7 -14 -13 -35z"/>
<path d="M5540 3329 l0 -311 173 4 c171 3 174 3 209 30 91 69 89 213 -2 278
l-31 22 25 27 c75 79 56 188 -44 239 -40 20 -59 22 -187 22 l-143 0 0 -311z
m269 185 c28 -35 26 -69 -4 -99 -20 -21 -34 -25 -85 -25 l-60 0 0 75 0 75 64
0 c58 0 67 -3 85 -26z m18 -246 c17 -16 23 -32 23 -64 0 -63 -31 -84 -121 -84
l-69 0 0 85 0 85 72 0 c60 0 76 -4 95 -22z"/>
<path d="M6060 3590 l0 -50 70 0 70 0 0 -255 0 -255 60 0 60 0 0 255 0 255 70
0 70 0 0 50 0 50 -200 0 -200 0 0 -50z"/>
<path d="M8730 3590 l0 -50 70 0 70 0 0 -255 0 -255 60 0 60 0 0 255 0 255 70
0 70 0 0 50 0 50 -200 0 -200 0 0 -50z"/>
<path d="M11080 3330 l0 -310 240 0 240 0 0 -70 0 -70 55 0 55 0 0 120 0 120
-45 0 -45 0 0 260 0 260 -60 0 -60 0 0 -260 0 -260 -130 0 -130 0 0 260 0 260
-60 0 -60 0 0 -310z"/>
<path d="M13870 3330 l0 -310 60 0 60 0 0 135 0 135 140 0 140 0 0 -135 0
-135 60 0 60 0 0 310 0 310 -60 0 -60 0 0 -125 0 -125 -140 0 -140 0 0 125 0
125 -60 0 -60 0 0 -310z"/>
<path d="M14570 3330 l0 -310 170 0 170 0 0 50 0 50 -110 0 -110 0 0 85 0 85
105 0 105 0 0 50 0 50 -105 0 -105 0 0 75 0 75 110 0 110 0 0 50 0 50 -170 0
-170 0 0 -310z"/>
<path d="M15060 3331 l0 -311 60 0 60 0 0 109 0 108 88 5 c110 7 163 31 192
89 43 83 36 177 -17 240 -47 55 -74 63 -235 67 l-148 4 0 -311z m271 180 c23
-23 29 -38 29 -71 0 -33 -6 -48 -29 -71 -26 -26 -36 -29 -90 -29 l-61 0 0 100
0 100 61 0 c54 0 64 -3 90 -29z"/>
<path d="M15610 3335 l0 -305 60 0 60 0 0 255 0 255 105 0 105 0 0 50 0 50
-165 0 -165 0 0 -305z"/>
<path d="M18440 3590 l0 -50 70 0 70 0 0 -255 0 -255 60 0 60 0 0 255 0 255
70 0 70 0 0 50 0 50 -200 0 -200 0 0 -50z"/>
<path d="M18950 3330 l0 -310 170 0 170 0 0 50 0 50 -110 0 -110 0 0 85 0 85
105 0 105 0 0 50 0 50 -105 0 -105 0 0 75 0 75 110 0 110 0 0 50 0 50 -170 0
-170 0 0 -310z"/>
<path d="M4962 2613 l3 -38 7118 -3 7117 -2 0 40 0 40 -7121 0 -7120 0 3 -37z"/>
<path d="M6330 2128 c-65 -34 -93 -91 -88 -184 4 -92 36 -144 102 -169 64 -24
111 -14 158 35 113 120 40 339 -112 340 -9 0 -36 -10 -60 -22z m120 -23 c93
-48 107 -211 25 -284 -89 -78 -210 -3 -209 129 0 126 92 203 184 155z"/>
<path d="M8210 2128 c-65 -34 -93 -91 -88 -184 4 -92 36 -144 102 -169 64 -24
111 -14 158 35 113 120 40 339 -112 340 -9 0 -36 -10 -60 -22z m120 -23 c93
-48 107 -211 25 -284 -89 -78 -210 -3 -209 129 0 126 92 203 184 155z"/>
<path d="M8790 2128 c-65 -34 -93 -91 -88 -184 4 -92 36 -144 102 -169 64 -24
111 -14 158 35 113 120 40 339 -112 340 -9 0 -36 -10 -60 -22z m120 -23 c93
-48 107 -211 25 -284 -89 -78 -210 -3 -209 129 0 126 92 203 184 155z"/>
<path d="M9620 2128 c-63 -32 -90 -83 -90 -171 0 -76 22 -131 65 -165 54 -43
159 -36 204 12 29 31 18 56 -13 28 -51 -47 -108 -55 -161 -22 -93 57 -91 233
2 291 47 29 113 22 153 -16 19 -18 30 -23 35 -15 11 17 -33 59 -74 70 -53 14
-72 13 -121 -12z"/>
<path d="M9980 2128 c-63 -32 -90 -83 -90 -171 0 -76 22 -131 65 -165 54 -43
159 -36 204 12 29 31 18 56 -13 28 -51 -47 -108 -55 -161 -22 -93 57 -91 233
2 291 47 29 113 22 153 -16 19 -18 30 -23 35 -15 11 17 -33 59 -74 70 -53 14
-72 13 -121 -12z"/>
<path d="M10856 1984 c-33 -91 -65 -172 -73 -179 -19 -19 -17 -85 2 -85 9 0
15 9 15 25 l0 25 125 0 125 0 0 -25 c0 -14 5 -25 10 -25 13 0 13 77 1 82 -5 2
-37 77 -71 168 -34 91 -65 168 -68 172 -4 4 -34 -67 -66 -158z m117 -54 l45
-125 -95 -3 c-53 -1 -97 -1 -99 1 -2 2 18 62 44 135 26 72 50 128 53 124 4 -4
27 -63 52 -132z"/>
<path d="M11210 2128 c-65 -34 -93 -91 -88 -184 4 -92 36 -144 102 -169 64
-24 111 -14 158 35 113 120 40 339 -112 340 -9 0 -36 -10 -60 -22z m120 -23
c93 -48 107 -211 25 -284 -89 -78 -210 -3 -209 129 0 126 92 203 184 155z"/>
<path d="M13170 2128 c-63 -32 -90 -83 -90 -171 0 -76 22 -131 65 -165 54 -43
159 -36 204 12 29 31 18 56 -13 28 -51 -47 -108 -55 -161 -22 -93 57 -91 233
2 291 47 29 113 22 153 -16 19 -18 30 -23 35 -15 11 17 -33 59 -74 70 -53 14
-72 13 -121 -12z"/>
<path d="M13780 2128 c-65 -34 -93 -91 -88 -184 4 -92 36 -144 102 -169 64
-24 111 -14 158 35 113 120 40 339 -112 340 -9 0 -36 -10 -60 -22z m120 -23
c93 -48 107 -211 25 -284 -89 -78 -210 -3 -209 129 0 126 92 203 184 155z"/>
<path d="M14370 2128 c-65 -34 -93 -91 -88 -184 4 -92 36 -144 102 -169 64
-24 111 -14 158 35 113 120 40 339 -112 340 -9 0 -36 -10 -60 -22z m120 -23
c93 -48 107 -211 25 -284 -89 -78 -210 -3 -209 129 0 126 92 203 184 155z"/>
<path d="M16540 2128 c-63 -32 -90 -83 -90 -171 0 -76 22 -131 65 -165 54 -43
159 -36 204 12 29 31 18 56 -13 28 -51 -47 -108 -55 -161 -22 -93 57 -91 233
2 291 47 29 113 22 153 -16 19 -18 30 -23 35 -15 11 17 -33 59 -74 70 -53 14
-72 13 -121 -12z"/>
<path d="M18664 2139 c-36 -10 -79 -53 -69 -69 5 -8 16 -3 36 16 20 19 42 28
76 31 43 5 53 2 82 -23 33 -27 61 -78 61 -109 0 -12 -14 -15 -70 -15 -56 0
-70 -3 -70 -15 0 -12 14 -15 70 -15 78 0 81 -4 56 -63 -36 -87 -134 -115 -200
-57 -24 22 -37 27 -42 19 -4 -7 5 -23 24 -40 72 -65 192 -39 240 51 20 38 23
57 20 116 -4 85 -32 134 -94 164 -43 21 -71 23 -120 9z"/>
<path d="M4990 1955 c0 -158 2 -185 15 -185 12 0 15 17 15 90 l0 90 80 0 80 0
0 -90 c0 -53 4 -90 10 -90 6 0 10 68 10 185 0 117 -4 185 -10 185 -6 0 -10
-33 -10 -80 l0 -80 -80 0 -80 0 0 80 c0 64 -3 80 -15 80 -13 0 -15 -27 -15
-185z"/>
<path d="M5610 1955 l0 -185 115 0 115 0 0 -25 c0 -14 5 -25 10 -25 6 0 10 18
10 40 0 36 -2 40 -25 40 l-25 0 0 170 c0 144 -2 170 -15 170 -13 0 -15 -26
-15 -170 l0 -170 -70 0 -70 0 0 170 c0 144 -2 170 -15 170 -13 0 -15 -27 -15
-185z"/>
<path d="M5920 1953 l0 -188 36 50 c19 28 66 92 102 144 l67 94 3 -142 c2
-116 5 -141 17 -141 13 0 15 29 15 185 0 102 -1 185 -3 185 -2 0 -48 -63 -102
-141 l-100 -140 -3 140 c-2 116 -5 141 -17 141 -13 0 -15 -29 -15 -187z"/>
<path d="M6630 1955 c0 -158 2 -185 15 -185 12 0 15 17 15 90 l0 90 80 0 80 0
0 -90 c0 -53 4 -90 10 -90 6 0 10 68 10 185 0 117 -4 185 -10 185 -6 0 -10
-33 -10 -80 l0 -80 -80 0 -80 0 0 80 c0 64 -3 80 -15 80 -13 0 -15 -27 -15
-185z"/>
<path d="M7560 1955 l0 -185 54 0 c64 0 113 16 126 40 13 24 13 106 0 130 -11
21 -67 40 -117 40 l-33 0 0 80 c0 64 -3 80 -15 80 -13 0 -15 -27 -15 -185z
m144 -24 c10 -11 18 -36 18 -56 0 -53 -25 -75 -84 -75 l-48 0 0 75 0 75 48 0
c36 0 54 -5 66 -19z"/>
<path d="M7830 1955 c0 -158 2 -185 15 -185 12 0 15 17 15 90 l0 90 80 0 80 0
0 -90 c0 -53 4 -90 10 -90 6 0 10 68 10 185 0 117 -4 185 -10 185 -6 0 -10
-33 -10 -80 l0 -80 -80 0 -80 0 0 80 c0 64 -3 80 -15 80 -13 0 -15 -27 -15
-185z"/>
<path d="M8510 1955 c0 -158 2 -185 15 -185 13 0 15 26 15 170 l0 170 60 0
c47 0 60 3 60 15 0 12 -15 15 -75 15 l-75 0 0 -185z"/>
<path d="M9220 1953 l0 -188 36 50 c19 28 66 92 102 144 l67 94 3 -142 c2
-116 5 -141 17 -141 13 0 15 29 15 185 0 102 -1 185 -3 185 -2 0 -48 -63 -102
-141 l-100 -140 -3 140 c-2 116 -5 141 -17 141 -13 0 -15 -29 -15 -187z"/>
<path d="M10560 1955 l0 -185 85 0 c69 0 85 3 85 15 0 12 -14 15 -70 15 l-70
0 0 80 0 80 70 0 c56 0 70 3 70 15 0 12 -14 15 -70 15 l-70 0 0 60 0 60 70 0
c56 0 70 3 70 15 0 12 -16 15 -85 15 l-85 0 0 -185z"/>
<path d="M11510 1956 l0 -186 49 0 c66 0 97 13 116 49 24 48 20 98 -13 130
-27 28 -27 28 -10 57 24 39 23 68 -5 100 -19 22 -34 28 -80 32 l-57 4 0 -186z
m115 130 c30 -46 -1 -96 -59 -96 -25 0 -26 2 -26 60 l0 60 35 0 c25 0 39 -6
50 -24z m12 -148 c16 -15 23 -33 23 -60 0 -51 -27 -78 -80 -78 l-40 0 0 80 0
80 37 0 c24 0 45 -8 60 -22z"/>
<path d="M12060 2125 c0 -10 11 -15 35 -15 l35 0 0 -170 c0 -107 4 -170 10
-170 6 0 10 63 10 170 l0 170 35 0 c24 0 35 5 35 15 0 12 -16 15 -80 15 -64 0
-80 -3 -80 -15z"/>
<path d="M12280 1955 l0 -185 85 0 c69 0 85 3 85 15 0 12 -14 15 -70 15 l-70
0 0 80 0 80 70 0 c56 0 70 3 70 15 0 12 -14 15 -70 15 l-70 0 0 60 0 60 70 0
c56 0 70 3 70 15 0 12 -16 15 -85 15 l-85 0 0 -185z"/>
<path d="M12820 1955 l0 -185 54 0 c64 0 113 16 126 40 13 24 13 106 0 130
-11 21 -67 40 -117 40 l-33 0 0 80 c0 64 -3 80 -15 80 -13 0 -15 -27 -15 -185z
m144 -24 c10 -11 18 -36 18 -56 0 -53 -25 -75 -84 -75 l-48 0 0 75 0 75 48 0
c36 0 54 -5 66 -19z"/>
<path d="M13440 1955 c0 -155 2 -185 15 -185 11 0 15 18 17 81 l3 82 64 -79
c36 -43 66 -81 67 -82 1 -2 10 -2 19 0 13 2 -1 25 -59 98 -42 52 -76 97 -76
100 0 3 32 42 71 88 56 65 66 82 51 82 -13 0 -44 -27 -81 -71 l-61 -70 0 70
c0 56 -3 71 -15 71 -13 0 -15 -27 -15 -185z"/>
<path d="M14080 1955 c0 -158 2 -185 15 -185 13 0 15 26 15 170 l0 170 60 0
c47 0 60 3 60 15 0 12 -15 15 -75 15 l-75 0 0 -185z"/>
<path d="M14780 2133 c0 -5 25 -73 54 -151 46 -122 53 -148 44 -168 -13 -28
-40 -31 -63 -8 -11 11 -20 13 -26 7 -12 -12 35 -53 61 -53 31 0 50 35 110 206
33 93 60 170 60 172 0 1 -6 2 -14 2 -9 0 -29 -44 -56 -126 -23 -69 -46 -122
-50 -117 -4 4 -27 61 -51 126 -24 65 -49 117 -56 117 -7 0 -13 -3 -13 -7z"/>
<path d="M15080 1955 c0 -158 2 -185 15 -185 12 0 15 17 15 90 l0 90 80 0 80
0 0 -90 c0 -53 4 -90 10 -90 6 0 10 68 10 185 0 117 -4 185 -10 185 -6 0 -10
-33 -10 -80 l0 -80 -80 0 -80 0 0 80 c0 64 -3 80 -15 80 -13 0 -15 -27 -15
-185z"/>
<path d="M15380 1953 l0 -188 36 50 c19 28 66 92 102 144 l67 94 3 -142 c2
-116 5 -141 17 -141 13 0 15 29 15 185 0 102 -1 185 -3 185 -2 0 -48 -63 -102
-141 l-100 -140 -3 140 c-2 116 -5 141 -17 141 -13 0 -15 -29 -15 -187z"/>
<path d="M15700 1956 l0 -186 49 0 c66 0 97 13 116 49 24 48 20 98 -13 130
-27 28 -27 28 -10 57 24 39 23 68 -5 100 -19 22 -34 28 -80 32 l-57 4 0 -186z
m115 130 c30 -46 -1 -96 -59 -96 -25 0 -26 2 -26 60 l0 60 35 0 c25 0 39 -6
50 -24z m12 -148 c16 -15 23 -33 23 -60 0 -51 -27 -78 -80 -78 l-40 0 0 80 0
80 37 0 c24 0 45 -8 60 -22z"/>
<path d="M15960 1955 l0 -185 85 0 c69 0 85 3 85 15 0 12 -14 15 -70 15 l-70
0 0 80 0 80 70 0 c56 0 70 3 70 15 0 12 -14 15 -70 15 l-70 0 0 60 0 60 70 0
c56 0 70 3 70 15 0 12 -16 15 -85 15 l-85 0 0 -185z"/>
<path d="M16190 1956 c0 -159 2 -186 15 -186 12 0 15 17 15 89 l0 88 58 6 c45
5 62 12 80 32 30 35 29 86 -2 122 -21 24 -32 28 -95 31 l-71 4 0 -186z m142
137 c22 -20 23 -70 1 -95 -11 -13 -30 -18 -65 -18 l-48 0 0 65 0 65 47 0 c29
0 53 -6 65 -17z"/>
<path d="M16810 1953 l0 -188 36 50 c19 28 66 92 102 144 l67 94 3 -142 c2
-116 5 -141 17 -141 13 0 15 29 15 185 0 102 -1 185 -3 185 -2 0 -48 -63 -102
-141 l-100 -140 -3 140 c-2 116 -5 141 -17 141 -13 0 -15 -29 -15 -187z"/>
<path d="M17110 2125 c0 -10 11 -15 35 -15 l35 0 0 -170 c0 -107 4 -170 10
-170 6 0 10 63 10 170 l0 170 35 0 c24 0 35 5 35 15 0 12 -16 15 -80 15 -64 0
-80 -3 -80 -15z"/>
<path d="M17330 1955 l0 -185 85 0 c69 0 85 3 85 15 0 12 -14 15 -70 15 l-70
0 0 80 0 80 70 0 c56 0 70 3 70 15 0 12 -14 15 -70 15 l-70 0 0 60 0 60 70 0
c56 0 70 3 70 15 0 12 -16 15 -85 15 l-85 0 0 -185z"/>
<path d="M17530 2125 c0 -10 11 -15 35 -15 l35 0 0 -170 c0 -107 4 -170 10
-170 6 0 10 63 10 170 l0 170 35 0 c24 0 35 5 35 15 0 12 -16 15 -80 15 -64 0
-80 -3 -80 -15z"/>
<path d="M18226 2130 c-9 -29 -39 -350 -33 -357 4 -3 10 -3 14 1 6 6 31 192
33 241 0 33 15 5 65 -123 27 -67 52 -119 56 -115 4 5 29 61 55 126 26 64 50
117 54 117 4 0 10 -35 14 -77 12 -143 18 -173 32 -173 8 0 14 2 14 5 0 19 -41
359 -44 362 -2 2 -29 -61 -61 -139 -32 -79 -61 -146 -64 -150 -3 -4 -34 61
-68 145 -34 84 -64 145 -67 137z"/>
<path d="M18960 1953 l0 -188 36 50 c19 28 66 92 102 144 l67 94 3 -142 c2
-116 5 -141 17 -141 13 0 15 29 15 185 0 102 -1 185 -3 185 -2 0 -48 -63 -102
-141 l-100 -140 -3 140 c-2 116 -5 141 -17 141 -13 0 -15 -29 -15 -187z"/>
<path d="M5333 1949 c-53 -136 -67 -179 -55 -177 9 2 27 30 41 66 l24 62 67 0
67 0 24 -62 c14 -36 32 -64 41 -66 12 -2 -1 41 -55 177 -39 100 -73 181 -77
181 -3 0 -38 -81 -77 -181z m102 59 c10 -29 20 -59 23 -65 3 -9 -10 -13 -47
-13 -28 0 -51 3 -51 7 0 14 45 123 50 123 4 0 14 -24 25 -52z"/>
<path d="M6973 1949 c-53 -136 -67 -179 -55 -177 9 2 27 30 41 66 l24 62 67 0
67 0 24 -62 c14 -36 32 -64 41 -66 12 -2 -1 41 -55 177 -39 100 -73 181 -77
181 -3 0 -38 -81 -77 -181z m102 59 c10 -29 20 -59 23 -65 3 -9 -10 -13 -47
-13 -28 0 -51 3 -51 7 0 14 45 123 50 123 4 0 14 -24 25 -52z"/>
<path d="M7296 1962 c-33 -92 -61 -173 -64 -179 -2 -7 3 -13 11 -13 10 0 30
43 62 135 26 75 51 137 54 139 4 3 29 -58 56 -135 29 -83 54 -139 62 -139 7 0
13 3 13 6 0 13 -125 354 -130 354 -3 0 -32 -75 -64 -168z"/>
<path d="M10306 1962 c-33 -92 -61 -173 -64 -179 -2 -7 3 -13 11 -13 10 0 30
43 62 135 26 75 51 137 54 139 4 3 29 -58 56 -135 29 -83 54 -139 62 -139 7 0
13 3 13 6 0 13 -125 354 -130 354 -3 0 -32 -75 -64 -168z"/>
<path d="M11803 1949 c-53 -136 -67 -179 -55 -177 9 2 27 30 41 66 l24 62 67
0 67 0 24 -62 c14 -36 32 -64 41 -66 12 -2 -1 41 -55 177 -39 100 -73 181 -77
181 -3 0 -38 -81 -77 -181z m102 59 c10 -29 20 -59 23 -65 3 -9 -10 -13 -47
-13 -28 0 -51 3 -51 7 0 14 45 123 50 123 4 0 14 -24 25 -52z"/>
<path d="M12556 1962 c-33 -92 -61 -173 -64 -179 -2 -7 3 -13 11 -13 10 0 30
43 62 135 26 75 51 137 54 139 4 3 29 -58 56 -135 29 -83 54 -139 62 -139 7 0
13 3 13 6 0 13 -125 354 -130 354 -3 0 -32 -75 -64 -168z"/>
<path d="M17793 1949 c-53 -136 -67 -179 -55 -177 9 2 27 30 41 66 l24 62 67
0 67 0 24 -62 c14 -36 32 -64 41 -66 12 -2 -1 41 -55 177 -39 100 -73 181 -77
181 -3 0 -38 -81 -77 -181z m102 59 c10 -29 20 -59 23 -65 3 -9 -10 -13 -47
-13 -28 0 -51 3 -51 7 0 14 45 123 50 123 4 0 14 -24 25 -52z"/>
</g>
</svg>
